<svg xmlns="http://www.w3.org/2000/svg" viewBox="0 0 500 260" width="500" height="260">
  <style>text{font-family:system-ui,Segoe UI,Helvetica,Arial,sans-serif;font-size:11px;fill:#333}.title{font-size:13px;font-weight:600}.axis{stroke:#888;stroke-width:1}.grid{stroke:#e5e5e5;stroke-width:1}.tgt{stroke:#999;stroke-width:1;stroke-dasharray:4 3}.tick{fill:#555;font-size:10px}</style>
  <text class="title" x="60" y="20">s7: N=15, P=10, 5 rpm -- P50 workMs per window</text>
  <line class="grid" x1="60" y1="215.0" x2="480" y2="215.0"/>
  <text class="tick" x="54" y="218.0" text-anchor="end">0</text>
  <line class="grid" x1="60" y1="180.0" x2="480" y2="180.0"/>
  <text class="tick" x="54" y="183.0" text-anchor="end">10</text>
  <line class="grid" x1="60" y1="145.0" x2="480" y2="145.0"/>
  <text class="tick" x="54" y="148.0" text-anchor="end">20</text>
  <line class="grid" x1="60" y1="110.0" x2="480" y2="110.0"/>
  <text class="tick" x="54" y="113.0" text-anchor="end">30</text>
  <line class="grid" x1="60" y1="75.0" x2="480" y2="75.0"/>
  <text class="tick" x="54" y="78.0" text-anchor="end">40</text>
  <line class="grid" x1="60" y1="40.0" x2="480" y2="40.0"/>
  <text class="tick" x="54" y="43.0" text-anchor="end">50</text>
  <line class="grid" x1="60.0" y1="40" x2="60.0" y2="215"/>
  <text class="tick" x="60.0" y="229" text-anchor="middle">0m</text>
  <line class="grid" x1="130.0" y1="40" x2="130.0" y2="215"/>
  <text class="tick" x="130.0" y="229" text-anchor="middle">15m</text>
  <line class="grid" x1="200.0" y1="40" x2="200.0" y2="215"/>
  <text class="tick" x="200.0" y="229" text-anchor="middle">30m</text>
  <line class="grid" x1="270.0" y1="40" x2="270.0" y2="215"/>
  <text class="tick" x="270.0" y="229" text-anchor="middle">45m</text>
  <line class="grid" x1="340.0" y1="40" x2="340.0" y2="215"/>
  <text class="tick" x="340.0" y="229" text-anchor="middle">60m</text>
  <line class="grid" x1="410.0" y1="40" x2="410.0" y2="215"/>
  <text class="tick" x="410.0" y="229" text-anchor="middle">75m</text>
  <line class="grid" x1="480.0" y1="40" x2="480.0" y2="215"/>
  <text class="tick" x="480.0" y="229" text-anchor="middle">90m</text>
  <line class="axis" x1="60" y1="215" x2="480" y2="215"/>
  <line class="axis" x1="60" y1="40" x2="60" y2="215"/>
  <text x="270" y="247" text-anchor="middle">time (minutes)</text>
  <text x="14" y="127" transform="rotate(-90 14 127)" text-anchor="middle">P50 latency (s)</text>
  <circle cx="60.0" cy="215.0" r="3" fill="#d62728"/>
  <circle cx="200.0" cy="57.5" r="3" fill="#d62728"/>
  <circle cx="340.0" cy="57.5" r="3" fill="#d62728"/>
  <circle cx="480.0" cy="57.5" r="3" fill="#d62728"/>
  <polyline fill="none" stroke="#d62728" stroke-width="1.8" points="60.0,215.0 60.0,215.0 60.0,57.5 200.0,57.5 200.0,57.5 340.0,57.5 340.0,57.5 480.0,57.5 "/>
  <circle cx="60.0" cy="215.0" r="3" fill="#1f77b4"/>
  <circle cx="200.0" cy="208.0" r="3" fill="#1f77b4"/>
  <circle cx="340.0" cy="208.0" r="3" fill="#1f77b4"/>
  <circle cx="480.0" cy="208.0" r="3" fill="#1f77b4"/>
  <polyline fill="none" stroke="#1f77b4" stroke-width="1.8" points="60.0,215.0 60.0,215.0 60.0,208.0 200.0,208.0 200.0,208.0 340.0,208.0 340.0,208.0 480.0,208.0 "/>
  <circle cx="60.0" cy="215.0" r="3" fill="#2ca02c"/>
  <circle cx="200.0" cy="208.0" r="3" fill="#2ca02c"/>
  <circle cx="340.0" cy="208.0" r="3" fill="#2ca02c"/>
  <circle cx="480.0" cy="208.0" r="3" fill="#2ca02c"/>
  <polyline fill="none" stroke="#2ca02c" stroke-width="1.8" points="60.0,215.0 60.0,215.0 60.0,208.0 200.0,208.0 200.0,208.0 340.0,208.0 340.0,208.0 480.0,208.0 "/>
  <rect x="260" y="48" width="14" height="3" fill="#d62728"/>
  <text x="280" y="53">baseline</text>
  <rect x="260" y="64" width="14" height="3" fill="#1f77b4"/>
  <text x="280" y="69">central</text>
  <rect x="260" y="80" width="14" height="3" fill="#2ca02c"/>
  <text x="280" y="85">pernode</text>
</svg>
